<?xml version="1.0" encoding="iso-8859-1"?>
<!-- Generator: Adobe Illustrator 16.0.0, SVG Export Plug-In . SVG Version: 6.00 Build 0)  -->
<!DOCTYPE svg PUBLIC "-//W3C//DTD SVG 1.1//EN" "http://www.w3.org/Graphics/SVG/1.1/DTD/svg11.dtd">
<svg xmlns="http://www.w3.org/2000/svg" xmlns:xlink="http://www.w3.org/1999/xlink" version="1.1" id="Capa_1" x="0px" y="0px" width="512px" height="512px" viewBox="0 0 193.324 193.324" style="enable-background:new 0 0 193.324 193.324;" xml:space="preserve">
<g>
	<path d="M40.887,69.946c0-1.72,1.394-3.118,3.118-3.118h74.312c1.718,0,3.118,1.397,3.118,3.118c0,1.723-1.4,3.118-3.118,3.118   H44.005C42.281,73.063,40.887,71.675,40.887,69.946z M44.005,101.11h38.358c1.72,0,3.118-1.395,3.118-3.118   c0-1.723-1.397-3.117-3.118-3.117H44.005c-1.724,0-3.118,1.395-3.118,3.117C40.887,99.716,42.281,101.11,44.005,101.11z    M63.669,122.922H44.005c-1.724,0-3.118,1.406-3.118,3.117c0,1.724,1.394,3.117,3.118,3.117h19.665c1.72,0,3.118-1.394,3.118-3.117   C66.787,124.328,65.39,122.922,63.669,122.922z M171.365,153.653c-6.612,19.15-23.924,39.671-39.178,39.671   c-2.088,0-4.092-0.384-5.955-1.163c-0.603-0.256-1.193-0.548-1.802-0.919c-0.609,0.371-1.194,0.663-1.803,0.919   c-1.863,0.768-3.873,1.163-5.968,1.163c-7.653,0-15.834-5.176-22.916-12.75H22.267c-1.72,0-3.118-1.407-3.118-3.118V31.624   c0-1.721,1.397-3.118,3.118-3.118h26.326v-8.567c0-1.72,1.397-3.117,3.118-3.117h12.775c0-0.049,0-0.106,0-0.155   C64.485,7.474,71.969,0,81.161,0c9.188,0,16.672,7.474,16.672,16.666c0,0.049,0,0.106,0,0.155h12.769   c1.724,0,3.118,1.397,3.118,3.117v8.567h26.323c1.723,0,3.117,1.397,3.117,3.118v76.464c3.721,0.104,7.6,0.908,11.601,2.57   C172.242,117.898,178.307,133.578,171.365,153.653z M54.828,38.328h52.656V23.062H94.268c-0.962,0-1.866-0.441-2.457-1.196   c-0.594-0.755-0.798-1.739-0.569-2.673c0.244-0.968,0.356-1.772,0.356-2.521c0-5.754-4.683-10.431-10.437-10.431   c-5.757,0-10.44,4.677-10.44,10.431c0,0.768,0.113,1.559,0.35,2.515c0.238,0.929,0.024,1.918-0.56,2.68   c-0.587,0.761-1.498,1.196-2.463,1.196h-13.22V38.328z M88.568,174.338c-4.722-6.351-8.632-13.609-11.076-20.685   c-6.927-20.088-0.877-35.743,16.605-42.995c10.263-4.244,19.847-3.337,27.215,2.436v-6.783c-1.498,0.322-3.422,0.615-5.565,0.615   c-3.416,0-6.437-0.719-8.976-2.162c-7.505-4.244-9.593-14.108-9.682-14.529c-0.311-1.519,0.542-3.042,2.01-3.559   c0.155-0.055,3.903-1.373,8.451-1.373c3.423,0,6.437,0.725,8.97,2.159c1.942,1.099,3.501,2.582,4.792,4.165v-7.681   c0-1.72,1.4-3.118,3.118-3.118c1.717,0,3.117,1.397,3.117,3.118v29.13c2.819-2.204,5.992-3.642,9.377-4.408V34.741H113.72v6.698   c0,1.72-1.395,3.118-3.118,3.118H51.71c-1.72,0-3.118-1.397-3.118-3.118v-6.698H25.384v139.597H88.568z M113.458,92.893   c-2.448-1.379-6.497-1.54-9.354-1.041c0.956,2.433,2.729,5.788,5.736,7.486c2.436,1.377,6.497,1.547,9.353,1.048   C118.244,97.95,116.466,94.589,113.458,92.893z M152.38,116.418c-10.462-4.316-19.315-2.246-25.417,6.272   c-0.042,0.055-0.121,0.079-0.158,0.128c-0.194,0.256-0.438,0.45-0.712,0.627c-0.116,0.079-0.207,0.164-0.335,0.219   c-0.396,0.189-0.847,0.316-1.327,0.316c-0.476,0-0.907-0.127-1.328-0.316c-0.115-0.055-0.207-0.14-0.322-0.219   c-0.274-0.164-0.518-0.371-0.725-0.627c-0.043-0.049-0.116-0.073-0.158-0.128c-6.102-8.519-14.955-10.589-25.41-6.272   c-10.078,4.178-20.527,13.67-13.101,35.201c7.146,20.697,26.186,39.227,36.855,34.794c0.682-0.28,1.4-0.73,2.259-1.406   c0.566-0.444,1.248-0.664,1.931-0.664c0.676,0,1.352,0.22,1.93,0.664c0.858,0.663,1.577,1.126,2.247,1.406   c10.717,4.433,29.733-14.084,36.863-34.794C172.912,130.088,162.463,120.596,152.38,116.418z" fill="#ffffff"/>
</g>
<g>
</g>
<g>
</g>
<g>
</g>
<g>
</g>
<g>
</g>
<g>
</g>
<g>
</g>
<g>
</g>
<g>
</g>
<g>
</g>
<g>
</g>
<g>
</g>
<g>
</g>
<g>
</g>
<g>
</g>
</svg>
